<?xml version="1.0" encoding="UTF-8"?>
<svg width="48px" height="48px" viewBox="0 0 48 48" version="1.1" xmlns="http://www.w3.org/2000/svg" xmlns:xlink="http://www.w3.org/1999/xlink">
    <!-- Generator: Sketch 51.2 (57519) - http://www.bohemiancoding.com/sketch -->
    <title>error_56</title>
    <desc>Created with Sketch.</desc>
    <defs></defs>
    <g id="User" stroke="none" stroke-width="1" fill="none" fill-rule="evenodd">
        <g id="web_4" transform="translate(-616.000000, -273.000000)">
            <g id="body" transform="translate(276.000000, 40.000000)">
                <g id="Group-2" transform="translate(225.000000, 227.000000)">
                    <g id="error_56" transform="translate(109.000000, 0.000000)">
                        <rect id="Bounds" opacity="0.1" x="0" y="0" width="60" height="60"></rect>
                        <path d="M30,53.5714286 C16.9818595,53.5714286 6.42857143,43.0181405 6.42857143,30 C6.42857143,16.9818595 16.9818595,6.42857143 30,6.42857143 C43.0181405,6.42857143 53.5714286,16.9818595 53.5714286,30 C53.5714286,43.0181405 43.0181405,53.5714286 30,53.5714286 Z M30,49.2857143 C40.6512059,49.2857143 49.2857143,40.6512059 49.2857143,30 C49.2857143,19.3487941 40.6512059,10.7142857 30,10.7142857 C19.3487941,10.7142857 10.7142857,19.3487941 10.7142857,30 C10.7142857,40.6512059 19.3487941,49.2857143 30,49.2857143 Z M30,17.6785714 C31.4793342,17.6785714 32.6785714,18.8778087 32.6785714,20.3571429 L32.6785714,30 C32.6785714,31.4793342 31.4793342,32.6785714 30,32.6785714 C28.5206658,32.6785714 27.3214286,31.4793342 27.3214286,30 L27.3214286,20.3571429 C27.3214286,18.8778087 28.5206658,17.6785714 30,17.6785714 Z M30,35.8928571 C31.775201,35.8928571 33.2142857,37.3319419 33.2142857,39.1071429 C33.2142857,40.8823438 31.775201,42.3214286 30,42.3214286 C28.224799,42.3214286 26.7857143,40.8823438 26.7857143,39.1071429 C26.7857143,37.3319419 28.224799,35.8928571 30,35.8928571 Z" id="Oval" fill="#B3B6BB"></path>
                    </g>
                </g>
            </g>
        </g>
    </g>
</svg>