<?xml version="1.0" encoding="UTF-8"?>
<svg width="48px" height="48px" viewBox="0 0 48 48" version="1.1" xmlns="http://www.w3.org/2000/svg" xmlns:xlink="http://www.w3.org/1999/xlink">
    <!-- Generator: Sketch 51.2 (57519) - http://www.bohemiancoding.com/sketch -->
    <title>Spinner</title>
    <desc>Created with Sketch.</desc>
    <defs></defs>
    <g id="User" stroke="none" stroke-width="1" fill="none" fill-rule="evenodd">
        <g id="mobile_5-copy" transform="translate(-164.000000, -330.000000)" fill="#FFFFFF" fill-rule="nonzero">
            <g id="Spinner" transform="translate(164.000000, 330.000000)">
                <path d="M24,48 C37.254834,48 48,37.254834 48,24 C48,10.745166 37.254834,0 24,0 C10.745166,0 0,10.745166 0,24 C0,24.8284271 0.671572875,25.5 1.5,25.5 C2.32842712,25.5 3,24.8284271 3,24 C3,12.4020203 12.4020203,3 24,3 C35.5979797,3 45,12.4020203 45,24 C45,35.5979797 35.5979797,45 24,45 C23.1715729,45 22.5,45.6715729 22.5,46.5 C22.5,47.3284271 23.1715729,48 24,48 Z" id="Source"></path>
            </g>
        </g>
    </g>
</svg>