<?xml version="1.0" encoding="UTF-8"?>
<svg width="26px" height="26px" viewBox="0 0 26 26" version="1.1" xmlns="http://www.w3.org/2000/svg" xmlns:xlink="http://www.w3.org/1999/xlink">
    <!-- Generator: Sketch 51.2 (57519) - http://www.bohemiancoding.com/sketch -->
    <title>Group 14</title>
    <desc>Created with Sketch.</desc>
    <defs></defs>
    <g id="User" stroke="none" stroke-width="1" fill="none" fill-rule="evenodd" opacity="0.7">
        <g id="mobile" transform="translate(-19.000000, -613.000000)">
            <g id="Group-3" transform="translate(0.000000, -2.000000)">
                <g id="Group-14" transform="translate(20.000000, 616.000000)">
                    <path d="M11.9958984,5.5546875 L11.9958984,5.5546875 C12.6086204,5.5546875 13.1053298,6.05139682 13.1053298,6.66411883 C13.1053298,6.67291318 13.1052252,6.68170722 13.1050161,6.69049908 L12.9658883,12.5399163 C12.9533602,13.0666408 12.5227719,13.4871094 11.9958984,13.4871094 L11.9958984,13.4871094 C11.469025,13.4871094 11.0384367,13.0666408 11.0259086,12.5399163 L10.8867808,6.69049908 C10.8722114,6.07795032 11.3569694,5.56957059 11.9695182,5.55500118 C11.97831,5.55479207 11.9871041,5.5546875 11.9958984,5.5546875 Z M12,17.6132812 C11.1714844,17.6132812 10.6382813,17.0964844 10.6382813,16.3089844 C10.6382813,15.5132813 11.1714844,14.9964844 12,14.9964844 C12.8285156,14.9964844 13.3617188,15.5132813 13.3617188,16.3089844 C13.3617188,17.0964844 12.8285156,17.6132812 12,17.6132812 Z" id="!" fill="#71757A"></path>
                    <circle id="Oval-6" stroke="#71757A" stroke-width="1.5" fill-rule="nonzero" cx="12" cy="12" r="12"></circle>
                </g>
            </g>
        </g>
    </g>
</svg>