<?xml version="1.0" encoding="UTF-8"?>
<svg width="18px" height="13px" viewBox="0 0 18 13" version="1.1" xmlns="http://www.w3.org/2000/svg" xmlns:xlink="http://www.w3.org/1999/xlink">
    <!-- Generator: Sketch 50.2 (55047) - http://www.bohemiancoding.com/sketch -->
    <title>share_24-minifined</title>
    <desc>Created with Sketch.</desc>
    <defs></defs>
    <g id="Page-1" stroke="none" stroke-width="1" fill="none" fill-rule="evenodd" opacity="0.800000012">
        <g id="mobile" transform="translate(-129.000000, -450.000000)">
            <g id="Group-3" transform="translate(0.000000, -2.000000)">
                <g id="Button-Copy" transform="translate(16.000000, 441.000000)">
                    <g id="Group-2" transform="translate(113.000000, 8.000000)">
                        <g id="share_24-minifined">
                            <g id="Group" transform="translate(10.000000, 10.000000) scale(-1, 1) translate(-10.000000, -10.000000) ">
                                <polygon id="Shape" opacity="0.4" points="0 0 20 0 20 20 0 20"></polygon>
                                <g id="a-link" transform="translate(1.666667, 3.333333)" fill="#45678F" fill-rule="nonzero">
                                    <path d="M6.8,0.308333333 L0.823333333,5.95333333 C0.739994289,6.03204545 0.692765608,6.14161583 0.692765608,6.25625 C0.692765608,6.37088417 0.739994289,6.48045455 0.823333333,6.55916667 L6.8,12.2033333 C6.92090995,12.3173305 7.09799659,12.3485835 7.25062414,12.2828613 C7.40325168,12.2171391 7.50223406,12.0670095 7.5025,11.9008333 L7.5025,8.995 C11.5333333,8.995 14.5691667,9.81666667 16.7416667,12.1833333 C16.775,12.2191667 16.8291667,12.2833333 16.9041667,12.375 C17.0031973,12.4957366 17.1727718,12.5315425 17.31216,12.4611485 C17.4515482,12.3907544 17.5233858,12.2330302 17.485,12.0816667 C17.4516667,11.9475 17.4266667,11.855 17.4125,11.8041667 C16.2275,7.7125 13.3116667,4.25083333 7.5025,3.4225 L7.5025,0.611666667 C7.50256629,0.445339234 7.40370681,0.294905597 7.25100635,0.228970876 C7.09830588,0.163036156 6.92102009,0.194232692 6.8,0.308333333 Z" id="a"></path>
                                </g>
                            </g>
                        </g>
                    </g>
                </g>
            </g>
        </g>
    </g>
</svg>