<?xml version="1.0" encoding="UTF-8"?>
<svg width="20px" height="21px" viewBox="0 0 20 21" version="1.1" xmlns="http://www.w3.org/2000/svg" xmlns:xlink="http://www.w3.org/1999/xlink">
    <!-- Generator: Sketch 40.3 (33839) - http://www.bohemiancoding.com/sketch -->
    <title>ic_add_shopping_cart_black_24px</title>
    <desc>Created with Sketch.</desc>
    <defs></defs>
    <g id="Page-1" stroke="none" stroke-width="1" fill="none" fill-rule="evenodd">
        <g id="45-copy-3" transform="translate(-113.000000, -230.000000)">
            <g id="card" transform="translate(15.000000, 132.000000)">
                <g id="Group-2" transform="translate(88.000000, 88.000000)">
                    <g id="ic_add_shopping_cart_black_24px" transform="translate(9.000000, 9.000000)">
                        <g id="Group">
                            <path d="M0,0 L24,0 L24,24 L0,24 L0,0 Z M18.31,6 L15.55,11 L18.31,6 Z" id="Shape"></path>
                            <path d="M11,9 L13,9 L13,6 L16,6 L16,4 L13,4 L13,1 L11,1 L11,4 L8,4 L8,6 L11,6 L11,9 L11,9 Z M7,18 C5.9,18 5.01,18.9 5.01,20 C5.01,21.1 5.9,22 7,22 C8.1,22 9,21.1 9,20 C9,18.9 8.1,18 7,18 L7,18 Z M17,18 C15.9,18 15.01,18.9 15.01,20 C15.01,21.1 15.9,22 17,22 C18.1,22 19,21.1 19,20 C19,18.9 18.1,18 17,18 L17,18 Z M7.2,14.63 L8.1,13 L15.55,13 C16.3,13 16.96,12.59 17.3,11.97 L20.678933,5.83364766 C20.9446189,5.35114538 20.7738376,4.74694489 20.29,4.48 L20.29,4.48 C19.8095123,4.21490332 19.2059808,4.38562012 18.9299067,4.88305092 L18.31,6 L15.55,11 L8.53,11 L8.4,10.73 L6.16,6 L5.21,4 L4.27,2 L1.99887595,2 C1.447212,2 1,2.44386482 1,3 L1,3 C1,3.55228475 1.44386482,4 2,4 L3,4 L6.6,11.59 L5.25,14.04 C5.09,14.32 5,14.65 5,15 C5,16.1 5.9,17 7,17 L17.9975267,17 C18.5511774,17 19,16.5561352 19,16 L19,16 C19,15.4477153 18.5601907,15 17.9926084,15 L7.42,15 C7.29,15 7.17,14.89 7.17,14.75 L7.2,14.63 Z" id="Shape" fill="#FFFFFF"></path>
                        </g>
                    </g>
                </g>
            </g>
        </g>
    </g>
</svg>
