<?xml version="1.0" encoding="UTF-8"?>
<svg width="48px" height="48px" viewBox="0 0 48 48" version="1.1" xmlns="http://www.w3.org/2000/svg" xmlns:xlink="http://www.w3.org/1999/xlink">
    <!-- Generator: Sketch 51.2 (57519) - http://www.bohemiancoding.com/sketch -->
    <title>error_56</title>
    <desc>Created with Sketch.</desc>
    <defs></defs>
    <g id="User" stroke="none" stroke-width="1" fill="none" fill-rule="evenodd">
        <g id="mobile_5-copy-2" transform="translate(-164.000000, -326.000000)">
            <g id="Group" transform="translate(16.000000, 296.000000)">
                <g id="error_56" transform="translate(142.000000, 24.000000)">
                    <rect id="Bounds" opacity="0.1" x="0" y="0" width="60" height="60"></rect>
                    <path d="M30,53.5714286 C16.9818595,53.5714286 6.42857143,43.0181405 6.42857143,30 C6.42857143,16.9818595 16.9818595,6.42857143 30,6.42857143 C43.0181405,6.42857143 53.5714286,16.9818595 53.5714286,30 C53.5714286,43.0181405 43.0181405,53.5714286 30,53.5714286 Z M30,50.3571429 C41.2429395,50.3571429 50.3571429,41.2429395 50.3571429,30 C50.3571429,18.7570605 41.2429395,9.64285714 30,9.64285714 C18.7570605,9.64285714 9.64285714,18.7570605 9.64285714,30 C9.64285714,41.2429395 18.7570605,50.3571429 30,50.3571429 Z M30,18.75 C31.1834673,18.75 32.1428571,19.7093898 32.1428571,20.8928571 L32.1428571,30 C32.1428571,31.1834673 31.1834673,32.1428571 30,32.1428571 C28.8165327,32.1428571 27.8571429,31.1834673 27.8571429,30 L27.8571429,20.8928571 C27.8571429,19.7093898 28.8165327,18.75 30,18.75 Z M30,35.3571429 C31.4793342,35.3571429 32.6785714,36.5563801 32.6785714,38.0357143 C32.6785714,39.5150484 31.4793342,40.7142857 30,40.7142857 C28.5206658,40.7142857 27.3214286,39.5150484 27.3214286,38.0357143 C27.3214286,36.5563801 28.5206658,35.3571429 30,35.3571429 Z" id="Oval" fill="#B3B6BB"></path>
                </g>
            </g>
        </g>
    </g>
</svg>