<?xml version="1.0" encoding="UTF-8"?>
<svg width="15px" height="11px" viewBox="0 0 15 11" version="1.1" xmlns="http://www.w3.org/2000/svg" xmlns:xlink="http://www.w3.org/1999/xlink">
    <!-- Generator: Sketch 50.2 (55047) - http://www.bohemiancoding.com/sketch -->
    <title>share_24-minifined</title>
    <desc>Created with Sketch.</desc>
    <defs></defs>
    <g id="Page-1" stroke="none" stroke-width="1" fill="none" fill-rule="evenodd">
        <g id="web_1" transform="translate(-868.000000, -489.000000)">
            <g id="Button/Blue/Normal" transform="translate(853.000000, 480.000000)">
                <g id="Group-7" transform="translate(15.000000, 6.000000)">
                    <g id="share_24-minifined">
                        <g id="Group" transform="translate(8.500000, 8.500000) scale(-1, 1) translate(-8.500000, -8.500000) ">
                            <polygon id="Shape" opacity="0.4" points="0 0 17 0 17 17 0 17"></polygon>
                            <g id="a-link" transform="translate(1.416667, 2.833333)" fill="#92A0B1" fill-rule="nonzero">
                                <path d="M5.78,0.262083333 L0.699833333,5.06033333 C0.628995145,5.12723863 0.588850767,5.22037345 0.588850767,5.3178125 C0.588850767,5.41525155 0.628995145,5.50838637 0.699833333,5.57529167 L5.78,10.3728333 C5.88277346,10.4697309 6.0332971,10.4962959 6.16303052,10.4404321 C6.29276393,10.3845682 6.37689895,10.256958 6.377125,10.1157083 L6.377125,7.64575 C9.80333333,7.64575 12.3837917,8.34416667 14.2304167,10.3558333 C14.25875,10.3862917 14.3047917,10.4408333 14.3685417,10.51875 C14.4527177,10.6213761 14.596856,10.6518111 14.715336,10.5919762 C14.8338159,10.5321413 14.8948779,10.3980757 14.86225,10.2694167 C14.8339167,10.155375 14.8126667,10.07675 14.800625,10.0335417 C13.793375,6.555625 11.3149167,3.61320833 6.377125,2.909125 L6.377125,0.519916667 C6.37718134,0.378538349 6.29315079,0.250669757 6.1633554,0.194625245 C6.03356,0.138580732 5.88286708,0.165097788 5.78,0.262083333 Z" id="a"></path>
                            </g>
                        </g>
                    </g>
                </g>
            </g>
        </g>
    </g>
</svg>