<?xml version="1.0" encoding="UTF-8"?>
<svg width="22px" height="22px" viewBox="0 0 22 22" version="1.1" xmlns="http://www.w3.org/2000/svg" xmlns:xlink="http://www.w3.org/1999/xlink">
    <!-- Generator: Sketch 51.2 (57519) - http://www.bohemiancoding.com/sketch -->
    <title>Group 14</title>
    <desc>Created with Sketch.</desc>
    <defs></defs>
    <g id="User" stroke="none" stroke-width="1" fill="none" fill-rule="evenodd" opacity="0.9">
        <g id="web_1-copy-2" transform="translate(-300.000000, -623.000000)">
            <g id="body" transform="translate(276.000000, 40.000000)">
                <g id="Group-5" transform="translate(0.000000, 55.000000)">
                    <g id="Group-14" transform="translate(25.000000, 529.000000)">
                        <path d="M9.99658203,4.62890625 L9.99658203,4.62890625 C10.5071837,4.62890625 10.9211081,5.04283069 10.9211081,5.55343236 C10.9211081,5.56076098 10.921021,5.56808935 10.9208467,5.5754159 L10.8049069,10.4499303 C10.7944668,10.8888673 10.4356432,11.2392578 9.99658203,11.2392578 L9.99658203,11.2392578 C9.55752082,11.2392578 9.19869725,10.8888673 9.18825717,10.4499303 L9.07231733,5.5754159 C9.06017615,5.0649586 9.46414118,4.64130883 9.97459849,4.62916765 C9.98192504,4.62899339 9.98925341,4.62890625 9.99658203,4.62890625 Z M10,14.6777344 C9.30957031,14.6777344 8.86523438,14.2470703 8.86523438,13.5908203 C8.86523438,12.9277344 9.30957031,12.4970703 10,12.4970703 C10.6904297,12.4970703 11.1347656,12.9277344 11.1347656,13.5908203 C11.1347656,14.2470703 10.6904297,14.6777344 10,14.6777344 Z" id="!" fill="#939393"></path>
                        <circle id="Oval-6" stroke="#939393" stroke-width="1.5" fill-rule="nonzero" cx="10" cy="10" r="10"></circle>
                    </g>
                </g>
            </g>
        </g>
    </g>
</svg>