<?xml version="1.0" encoding="UTF-8"?>
<svg width="64px" height="64px" viewBox="0 0 64 64" version="1.1" xmlns="http://www.w3.org/2000/svg" xmlns:xlink="http://www.w3.org/1999/xlink">
    <!-- Generator: Sketch 51.2 (57519) - http://www.bohemiancoding.com/sketch -->
    <title>error_56</title>
    <desc>Created with Sketch.</desc>
    <defs></defs>
    <g id="User" stroke="none" stroke-width="1" fill="none" fill-rule="evenodd">
        <g id="mobile_4" transform="translate(-156.000000, -268.000000)">
            <g id="error_56" transform="translate(148.000000, 260.000000)">
                <rect id="Bounds" opacity="0.1" x="0" y="0" width="80" height="80"></rect>
                <path d="M40,71.4285714 C22.6424793,71.4285714 8.57142857,57.3575207 8.57142857,40 C8.57142857,22.6424793 22.6424793,8.57142857 40,8.57142857 C57.3575207,8.57142857 71.4285714,22.6424793 71.4285714,40 C71.4285714,57.3575207 57.3575207,71.4285714 40,71.4285714 Z M40,65.7142857 C54.2016079,65.7142857 65.7142857,54.2016079 65.7142857,40 C65.7142857,25.7983921 54.2016079,14.2857143 40,14.2857143 C25.7983921,14.2857143 14.2857143,25.7983921 14.2857143,40 C14.2857143,54.2016079 25.7983921,65.7142857 40,65.7142857 Z M40,23.5714286 C41.9724455,23.5714286 43.5714286,25.1704116 43.5714286,27.1428571 L43.5714286,40 C43.5714286,41.9724455 41.9724455,43.5714286 40,43.5714286 C38.0275545,43.5714286 36.4285714,41.9724455 36.4285714,40 L36.4285714,27.1428571 C36.4285714,25.1704116 38.0275545,23.5714286 40,23.5714286 Z M40,47.8571429 C42.3669346,47.8571429 44.2857143,49.7759225 44.2857143,52.1428571 C44.2857143,54.5097918 42.3669346,56.4285714 40,56.4285714 C37.6330654,56.4285714 35.7142857,54.5097918 35.7142857,52.1428571 C35.7142857,49.7759225 37.6330654,47.8571429 40,47.8571429 Z" id="Oval" fill="#B3B6BB"></path>
            </g>
        </g>
    </g>
</svg>